<?xml version="1.0" encoding="UTF-8" standalone="no"?>
<svg
   xmlns:ooo="http://xml.openoffice.org/svg/export"
   xmlns:dc="http://purl.org/dc/elements/1.1/"
   xmlns:cc="http://creativecommons.org/ns#"
   xmlns:rdf="http://www.w3.org/1999/02/22-rdf-syntax-ns#"
   xmlns:svg="http://www.w3.org/2000/svg"
   xmlns="http://www.w3.org/2000/svg"
   xmlns:sodipodi="http://sodipodi.sourceforge.net/DTD/sodipodi-0.dtd"
   xmlns:inkscape="http://www.inkscape.org/namespaces/inkscape"
   version="1.2"
   width="34.399998mm"
   height="19.639999mm"
   viewBox="0 0 3439.9998 1963.9999"
   preserveAspectRatio="xMidYMid"
   fill-rule="evenodd"
   stroke-width="28.222"
   stroke-linejoin="round"
   xml:space="preserve"
   id="svg79"
   sodipodi:docname="Articulation - Birds Eye Fermata  .svg"
   inkscape:version="1.0.1 (3bc2e813f5, 2020-09-07)"><metadata
   id="metadata83"><rdf:RDF><cc:Work
       rdf:about=""><dc:format>image/svg+xml</dc:format><dc:type
         rdf:resource="http://purl.org/dc/dcmitype/StillImage" /></cc:Work></rdf:RDF></metadata><sodipodi:namedview
   pagecolor="#ffffff"
   bordercolor="#666666"
   borderopacity="1"
   objecttolerance="10"
   gridtolerance="10"
   guidetolerance="10"
   inkscape:pageopacity="0"
   inkscape:pageshadow="2"
   inkscape:window-width="1920"
   inkscape:window-height="1001"
   id="namedview81"
   showgrid="false"
   inkscape:zoom="3.1008778"
   inkscape:cx="64.667717"
   inkscape:cy="45.732284"
   inkscape:window-x="-9"
   inkscape:window-y="-9"
   inkscape:window-maximized="1"
   inkscape:current-layer="svg79"
   inkscape:document-rotation="0" />
 <defs
   class="ClipPathGroup"
   id="defs8">
  <clipPath
   id="presentation_clip_path"
   clipPathUnits="userSpaceOnUse">
   <rect
   x="0"
   y="0"
   width="7082"
   height="7082"
   id="rect2" />
  </clipPath>
  <clipPath
   id="presentation_clip_path_shrink"
   clipPathUnits="userSpaceOnUse">
   <rect
   x="7"
   y="7"
   width="7068"
   height="7068"
   id="rect5" />
  </clipPath>
 </defs>
 <defs
   class="TextShapeIndex"
   id="defs12">
  <g
   ooo:slide="id1"
   ooo:id-list="id3 id4"
   id="g10" />
 </defs>
 <defs
   class="EmbeddedBulletChars"
   id="defs44">
  <g
   id="bullet-char-template-57356"
   transform="matrix(4.8828125e-4,0,0,-4.8828125e-4,0,0)">
   <path
   d="M 580,1141 1163,571 580,0 -4,571 Z"
   id="path14" />
  </g>
  <g
   id="bullet-char-template-57354"
   transform="matrix(4.8828125e-4,0,0,-4.8828125e-4,0,0)">
   <path
   d="M 8,1128 H 1137 V 0 H 8 Z"
   id="path17" />
  </g>
  <g
   id="bullet-char-template-10146"
   transform="matrix(4.8828125e-4,0,0,-4.8828125e-4,0,0)">
   <path
   d="M 174,0 602,739 174,1481 1456,739 Z M 1358,739 309,1346 659,739 Z"
   id="path20" />
  </g>
  <g
   id="bullet-char-template-10132"
   transform="matrix(4.8828125e-4,0,0,-4.8828125e-4,0,0)">
   <path
   d="M 2015,739 1276,0 H 717 l 543,543 H 174 v 393 h 1086 l -543,545 h 557 z"
   id="path23" />
  </g>
  <g
   id="bullet-char-template-10007"
   transform="matrix(4.8828125e-4,0,0,-4.8828125e-4,0,0)">
   <path
   d="m 0,-2 c -7,16 -16,29 -25,39 l 381,530 c -94,256 -141,385 -141,387 0,25 13,38 40,38 9,0 21,-2 34,-5 21,4 42,12 65,25 l 27,-13 111,-251 280,301 64,-25 24,25 c 21,-10 41,-24 62,-43 C 886,937 835,863 770,784 769,783 710,716 594,584 L 774,223 c 0,-27 -21,-55 -63,-84 l 16,-20 C 717,90 699,76 672,76 641,76 570,178 457,381 L 164,-76 c -22,-34 -53,-51 -92,-51 -42,0 -63,17 -64,51 -7,9 -10,24 -10,44 0,9 1,19 2,30 z"
   id="path26" />
  </g>
  <g
   id="bullet-char-template-10004"
   transform="matrix(4.8828125e-4,0,0,-4.8828125e-4,0,0)">
   <path
   d="M 285,-33 C 182,-33 111,30 74,156 52,228 41,333 41,471 c 0,78 14,145 41,201 34,71 87,106 158,106 53,0 88,-31 106,-94 l 23,-176 c 8,-64 28,-97 59,-98 l 735,706 c 11,11 33,17 66,17 42,0 63,-15 63,-46 V 965 c 0,-36 -10,-64 -30,-84 L 442,47 C 390,-6 338,-33 285,-33 Z"
   id="path29" />
  </g>
  <g
   id="bullet-char-template-9679"
   transform="matrix(4.8828125e-4,0,0,-4.8828125e-4,0,0)">
   <path
   d="M 813,0 C 632,0 489,54 383,161 276,268 223,411 223,592 c 0,181 53,324 160,431 106,107 249,161 430,161 179,0 323,-54 432,-161 108,-107 162,-251 162,-431 0,-180 -54,-324 -162,-431 C 1136,54 992,0 813,0 Z"
   id="path32" />
  </g>
  <g
   id="bullet-char-template-8226"
   transform="matrix(4.8828125e-4,0,0,-4.8828125e-4,0,0)">
   <path
   d="m 346,457 c -73,0 -137,26 -191,78 -54,51 -81,114 -81,188 0,73 27,136 81,188 54,52 118,78 191,78 73,0 134,-26 185,-79 51,-51 77,-114 77,-187 0,-75 -25,-137 -76,-188 -50,-52 -112,-78 -186,-78 z"
   id="path35" />
  </g>
  <g
   id="bullet-char-template-8211"
   transform="matrix(4.8828125e-4,0,0,-4.8828125e-4,0,0)">
   <path
   d="M -4,459 H 1135 V 606 H -4 Z"
   id="path38" />
  </g>
  <g
   id="bullet-char-template-61548"
   transform="matrix(4.8828125e-4,0,0,-4.8828125e-4,0,0)">
   <path
   d="m 173,740 c 0,163 58,303 173,419 116,115 255,173 419,173 163,0 302,-58 418,-173 116,-116 174,-256 174,-419 0,-163 -58,-303 -174,-418 C 1067,206 928,148 765,148 601,148 462,206 346,322 231,437 173,577 173,740 Z"
   id="path41" />
  </g>
 </defs>
 <g
   id="g49"
   transform="translate(-1830,-2331)">
  <g
   id="id2"
   class="Master_Slide">
   <g
   id="bg-id2"
   class="Background" />
   <g
   id="bo-id2"
   class="BackgroundObjects" />
  </g>
 </g>
 <g
   class="SlideGroup"
   id="g77"
   transform="translate(-1830,-2331)">
  <g
   id="g75">
   <g
   id="container-id1">
    <g
   id="id1"
   class="Slide"
   clip-path="url(#presentation_clip_path)">
     <g
   class="Page"
   id="g71">
      <g
   class="Group"
   id="g69">
       <g
   class="com.sun.star.drawing.CustomShape"
   id="g58">
        <g
   id="id3">
         <rect
   class="BoundingBox"
   stroke="none"
   fill="none"
   x="3159"
   y="3498"
   width="783"
   height="783"
   id="rect51" />
         <path
   fill="#000000"
   stroke="none"
   d="m 3915,3889 c 0,64 -17,127 -49,183 -32,55 -78,101 -133,133 -56,32 -119,49 -183,49 -64,0 -127,-17 -182,-49 -56,-32 -102,-78 -134,-133 -32,-56 -49,-119 -49,-183 0,-64 17,-127 49,-182 32,-56 78,-102 133,-134 56,-32 119,-49 183,-49 64,0 127,17 183,49 55,32 101,78 133,133 32,56 49,119 49,183 z"
   id="path53" />
         <path
   fill="none"
   stroke="#000000"
   stroke-width="51"
   stroke-linejoin="round"
   d="m 3915,3889 c 0,64 -17,127 -49,183 -32,55 -78,101 -133,133 -56,32 -119,49 -183,49 -64,0 -127,-17 -182,-49 -56,-32 -102,-78 -134,-133 -32,-56 -49,-119 -49,-183 0,-64 17,-127 49,-182 32,-56 78,-102 133,-134 56,-32 119,-49 183,-49 64,0 127,17 183,49 55,32 101,78 133,133 32,56 49,119 49,183 z"
   id="path55" />
        </g>
       </g>
       <g
   class="com.sun.star.drawing.ClosedBezierShape"
   id="g67">
        <g
   id="id4">
         <rect
   class="BoundingBox"
   stroke="none"
   fill="none"
   x="1830"
   y="2331"
   width="3440"
   height="1964"
   id="rect60" />
         <path
   fill="#000000"
   stroke="none"
   d="m 5114,4251 c -156,-401 -105,-395 -345,-757 -195,-240 -467,-632 -1216,-647 -749,-15 -1006,407 -1246,686 -157,261 -116,131 -317,718 -66,-2 16,23 -134,-5 0,-337 294,-948 312,-975 188,-346 255,-430 546,-646 266,-157 527,-268 826,-268 299,0 611,95 878,290 267,195 374,359 524,624 149,265 301,692 301,997 0,0 -140,0 -129,-17 z"
   id="path62" />
         <path
   fill="none"
   stroke="#000000"
   stroke-width="51"
   stroke-linejoin="round"
   d="m 5114,4251 c -156,-401 -105,-395 -345,-757 -195,-240 -467,-632 -1216,-647 -749,-15 -1006,407 -1246,686 -157,261 -116,131 -317,718 -66,-2 16,23 -134,-5 0,-337 294,-948 312,-975 188,-346 255,-430 546,-646 266,-157 527,-268 826,-268 299,0 611,95 878,290 267,195 374,359 524,624 149,265 301,692 301,997 0,0 -140,0 -129,-17 z"
   id="path64" />
        </g>
       </g>
      </g>
     </g>
    </g>
   </g>
  </g>
 </g>&lt;!-- This image is part of a music vectors set created that I, Jeramee Sikorski, created to make music lessons for my daughters. These images are licensed under the Creative Commons license CC0 as it exists on 16 March 2021.  They were initially offered to the public at https://publicdomainvectors.org/. (I also plan to make backup copies available at https://drjeramee.blogspot.com/).  They are FREE to use, so share the love.  While optional, I do ask that you please keep my name on the images or mention me in projects that make substantial use of the images in the set, so I can see the great work you do to make the world a more beautiful place, unless you’re a bigot or white supremacist, in which case you need to go make your own images. --&gt;</svg>
